<svg width="1233" height="274" viewBox="0 0 1233 274" fill="none" xmlns="http://www.w3.org/2000/svg">
<rect x="286.774" y="10.6227" width="151.613" height="262.377" fill="black"/>
<path d="M327.031 59V37.1818H341.733V40.9851H331.644V46.1839H340.976V49.9872H331.644V55.1967H341.775V59H327.031ZM330.973 98.1818L336.246 114.759H336.449L341.733 98.1818H346.846L339.325 120H333.381L325.849 98.1818H330.973ZM327.031 181V159.182H341.733V162.985H331.644V168.184H340.976V171.987H331.644V177.197H341.775V181H327.031ZM327.031 242V220.182H335.639C337.287 220.182 338.693 220.477 339.858 221.066C341.03 221.648 341.921 222.476 342.532 223.548C343.15 224.614 343.459 225.867 343.459 227.309C343.459 228.758 343.146 230.004 342.521 231.048C341.896 232.085 340.991 232.881 339.805 233.435C338.626 233.989 337.198 234.266 335.522 234.266H329.758V230.558H334.776C335.657 230.558 336.388 230.437 336.971 230.196C337.553 229.955 337.986 229.592 338.27 229.109C338.562 228.626 338.707 228.026 338.707 227.309C338.707 226.585 338.562 225.974 338.27 225.477C337.986 224.979 337.55 224.603 336.96 224.347C336.378 224.085 335.643 223.953 334.755 223.953H331.644V242H327.031ZM338.814 232.071L344.236 242H339.144L333.839 232.071H338.814Z" fill="white"/>
<g clip-path="url(#clip0_211_235)">
<path d="M138.75 273.377H103.42L38.7912 108.779C40.5145 116.8 41.3762 123.094 41.3762 127.662V273.377H2.08203V11.8578H37.4123L102.041 173.114C100.317 165.093 99.4557 158.799 99.4557 154.231V11.8578H138.75V273.377Z" fill="white"/>
<path d="M604.869 249.481C604.869 265.413 596.711 273.377 580.395 273.377H499.222C483.021 273.377 474.922 265.413 474.922 249.481V187.151H515.251V240.457H564.54V189.156L483.711 114.962C477.851 109.503 474.922 102.54 474.922 94.0735V35.921C474.922 19.8788 483.021 11.8578 499.222 11.8578H580.395C596.711 11.8578 604.869 19.7674 604.869 35.5868V94.0735H564.54V44.7775H515.251V92.0682L596.078 165.929C601.94 171.276 604.869 178.35 604.869 187.151V249.481ZM807.06 46.4485H762.597V273.377H722.44V46.4485H677.976V11.8578H807.06V46.4485ZM1016.67 249.481C1016.67 265.413 1008.51 273.377 992.191 273.377H904.641C888.671 273.377 880.685 265.413 880.685 249.481V35.921C880.685 19.8788 888.671 11.8578 904.641 11.8578H992.191C1008.51 11.8578 1016.67 19.8788 1016.67 35.921V249.481ZM976.336 239.789V45.446H921.014V239.789H976.336ZM1232.47 154.231C1232.47 170.496 1224.26 178.629 1207.83 178.629H1142.51V273.377H1102.18V11.8578H1207.83C1224.26 11.8578 1232.47 19.8788 1232.47 35.921V154.231ZM1191.8 145.041V45.446H1142.51V145.041H1191.8Z" fill="black"/>
<path d="M138.75 273.377V275.659H141.103V273.377H138.75ZM103.42 273.377L101.221 274.19L101.798 275.659H103.42V273.377ZM38.7917 108.779L40.9906 107.967L36.488 109.244L38.7917 108.779ZM41.3767 273.377V275.659H43.7298V273.377H41.3767ZM2.08255 273.377H-0.270508V275.659H2.08255V273.377ZM2.08255 11.8578V9.57629H-0.270508V11.8578H2.08255ZM37.4128 11.8578L39.6061 11.0314L39.023 9.57629H37.4128V11.8578ZM102.041 173.114L99.848 173.941L104.345 172.649L102.041 173.114ZM99.4562 11.8578V9.57629H97.1032V11.8578H99.4562ZM138.75 11.8578H141.103V9.57629H138.75V11.8578ZM138.75 271.096H103.42V275.659H138.75V271.096ZM105.619 272.565L40.9906 107.967L36.5925 109.591L101.221 274.19L105.619 272.565ZM36.488 109.244C38.2001 117.212 39.0237 123.327 39.0237 127.662H43.7298C43.7298 122.861 42.83 116.387 41.0951 108.314L36.488 109.244ZM39.0237 127.662V273.377H43.7298V127.662H39.0237ZM41.3767 271.096H2.08255V275.659H41.3767V271.096ZM4.43561 273.377V11.8578H-0.270508V273.377H4.43561ZM2.08255 14.1394H37.4128V9.57629H2.08255V14.1394ZM35.2195 12.6842L99.848 173.941L104.235 172.288L39.6061 11.0314L35.2195 12.6842ZM104.345 172.649C102.633 164.681 101.809 158.566 101.809 154.231H97.1032C97.1032 159.032 98.003 165.506 99.7379 173.58L104.345 172.649ZM101.809 154.231V11.8578H97.1032V154.231H101.809ZM99.4562 14.1394H138.75V9.57629H99.4562V14.1394ZM136.397 11.8578V273.377H141.103V11.8578H136.397ZM474.922 187.151V184.87H472.569V187.151H474.922ZM515.251 187.151H517.604V184.87H515.251V187.151ZM515.251 240.457H512.898V242.739H515.251V240.457ZM564.541 240.457V242.739H566.894V240.457H564.541ZM564.541 189.156H566.894V188.175L566.157 187.5L564.541 189.156ZM483.711 114.962L482.082 116.607L482.094 116.619L483.711 114.962ZM604.87 94.0735V96.3551H607.223V94.0735H604.87ZM564.541 94.0735H562.187V96.3551H564.541V94.0735ZM564.541 44.7776H566.894V42.496H564.541V44.7776ZM515.251 44.7776V42.496H512.898V44.7776H515.251ZM515.251 92.0683H512.898V93.0532L513.637 93.7288L515.251 92.0683ZM596.079 165.929L594.464 167.589L594.467 167.59L596.079 165.929ZM602.516 249.481C602.516 257.099 600.566 262.392 597.081 265.796C593.598 269.195 588.186 271.096 580.395 271.096V275.659C588.921 275.659 595.744 273.576 600.42 269.011C605.093 264.45 607.223 257.795 607.223 249.481H602.516ZM580.395 271.096H499.222V275.659H580.395V271.096ZM499.222 271.096C491.495 271.096 486.127 269.198 482.673 265.8C479.212 262.399 477.275 257.103 477.275 249.481H472.569C472.569 257.79 474.682 264.443 479.322 269.006C483.967 273.574 490.751 275.659 499.222 275.659V271.096ZM477.275 249.481V187.151H472.569V249.481H477.275ZM474.922 189.433H515.251V184.87H474.922V189.433ZM512.898 187.151V240.457H517.604V187.151H512.898ZM515.251 242.739H564.541V238.176H515.251V242.739ZM566.894 240.457V189.156H562.187V240.457H566.894ZM566.157 187.5L485.33 113.305L482.094 116.619L562.922 190.813L566.157 187.5ZM485.341 113.316C479.981 108.322 477.275 101.971 477.275 94.0735H472.569C472.569 103.11 475.722 110.684 482.082 116.607L485.341 113.316ZM477.275 94.0735V35.9211H472.569V94.0735H477.275ZM477.275 35.9211C477.275 28.2397 479.214 22.9001 482.678 19.4698C486.134 16.0485 491.497 14.1394 499.222 14.1394V9.57629C490.746 9.57629 483.96 11.6777 479.315 16.2774C474.68 20.8682 472.569 27.5602 472.569 35.9211H477.275ZM499.222 14.1394H580.395V9.57629H499.222V14.1394ZM580.395 14.1394C588.191 14.1394 593.605 16.0273 597.086 19.4034C600.568 22.7794 602.516 28.0288 602.516 35.5868H607.223C607.223 27.3254 605.091 20.7104 600.415 16.1768C595.74 11.6432 588.916 9.57629 580.395 9.57629V14.1394ZM602.516 35.5868V94.0735H607.223V35.5868H602.516ZM604.87 91.792H564.541V96.3551H604.87V91.792ZM566.894 94.0735V44.7776H562.187V94.0735H566.894ZM564.541 42.496H515.251V47.0591H564.541V42.496ZM512.898 44.7776V92.0683H517.604V44.7776H512.898ZM513.637 93.7288L594.464 167.589L597.693 164.268L516.865 90.408L513.637 93.7288ZM594.467 167.59C599.792 172.449 602.516 178.891 602.516 187.151H607.223C607.223 177.81 604.086 170.104 597.693 164.268L594.467 167.59ZM602.516 187.151V249.481H607.223V187.151H602.516ZM807.06 46.4486V48.7301H809.413V46.4486H807.06ZM762.597 46.4486V44.167H760.244V46.4486H762.597ZM762.597 273.377V275.659H764.95V273.377H762.597ZM722.44 273.377H720.087V275.659H722.44V273.377ZM722.44 46.4486H724.793V44.167H722.44V46.4486ZM677.977 46.4486H675.624V48.7301H677.977V46.4486ZM677.977 11.8578V9.57629H675.624V11.8578H677.977ZM807.06 11.8578H809.413V9.57629H807.06V11.8578ZM807.06 44.167H762.597V48.7301H807.06V44.167ZM760.244 46.4486V273.377H764.95V46.4486H760.244ZM762.597 271.096H722.44V275.659H762.597V271.096ZM724.793 273.377V46.4486H720.087V273.377H724.793ZM722.44 44.167H677.977V48.7301H722.44V44.167ZM680.33 46.4486V11.8578H675.624V46.4486H680.33ZM677.977 14.1394H807.06V9.57629H677.977V14.1394ZM804.707 11.8578V46.4486H809.413V11.8578H804.707ZM976.337 239.789V242.07H978.69V239.789H976.337ZM976.337 45.4461H978.69V43.1645H976.337V45.4461ZM921.014 45.4461V43.1645H918.661V45.4461H921.014ZM921.014 239.789H918.661V242.07H921.014V239.789ZM1014.31 249.481C1014.31 257.099 1012.36 262.392 1008.88 265.796C1005.39 269.195 999.983 271.096 992.192 271.096V275.659C1000.72 275.659 1007.54 273.576 1012.22 269.011C1016.89 264.45 1019.02 257.795 1019.02 249.481H1014.31ZM992.192 271.096H904.642V275.659H992.192V271.096ZM904.642 271.096C897.036 271.096 891.761 269.202 888.363 265.814C884.951 262.412 883.038 257.11 883.038 249.481H878.332C878.332 257.783 880.412 264.429 884.989 268.995C889.575 273.569 896.276 275.659 904.642 275.659V271.096ZM883.038 249.481V35.9211H878.332V249.481H883.038ZM883.038 35.9211C883.038 28.2318 884.953 22.8876 888.368 19.4582C891.768 16.0437 897.041 14.1394 904.642 14.1394V9.57629C896.272 9.57629 889.568 11.6825 884.982 16.2891C880.41 20.8807 878.332 27.568 878.332 35.9211H883.038ZM904.642 14.1394H992.192V9.57629H904.642V14.1394ZM992.192 14.1394C999.978 14.1394 1005.39 16.0508 1008.87 19.4756C1012.36 22.9063 1014.31 28.2437 1014.31 35.9211H1019.02C1019.02 27.5562 1016.89 20.862 1012.22 16.2716C1007.55 11.6754 1000.72 9.57629 992.192 9.57629V14.1394ZM1014.31 35.9211V249.481H1019.02V35.9211H1014.31ZM978.69 239.789V45.4461H973.984V239.789H978.69ZM976.337 43.1645H921.014V47.7276H976.337V43.1645ZM918.661 45.4461V239.789H923.367V45.4461H918.661ZM921.014 242.07H976.337V237.508H921.014V242.07ZM1142.51 178.629V176.347H1140.16V178.629H1142.51ZM1142.51 273.377V275.659H1144.86V273.377H1142.51ZM1102.18 273.377H1099.83V275.659H1102.18V273.377ZM1102.18 11.8578V9.57629H1099.83V11.8578H1102.18ZM1191.8 145.041V147.322H1194.15V145.041H1191.8ZM1191.8 45.4461H1194.15V43.1645H1191.8V45.4461ZM1142.51 45.4461V43.1645H1140.16V45.4461H1142.51ZM1142.51 145.041H1140.16V147.322H1142.51V145.041ZM1230.12 154.231C1230.12 162.024 1228.15 167.447 1224.63 170.933C1221.12 174.41 1215.67 176.347 1207.83 176.347V180.91C1216.42 180.91 1223.29 178.781 1227.99 174.126C1232.69 169.479 1234.82 162.704 1234.82 154.231H1230.12ZM1207.83 176.347H1142.51V180.91H1207.83V176.347ZM1140.16 178.629V273.377H1144.86V178.629H1140.16ZM1142.51 271.096H1102.18V275.659H1142.51V271.096ZM1104.53 273.377V11.8578H1099.83V273.377H1104.53ZM1102.18 14.1394H1207.83V9.57629H1102.18V14.1394ZM1207.83 14.1394C1215.68 14.1394 1221.13 16.053 1224.64 19.4813C1228.16 22.9125 1230.12 28.2476 1230.12 35.9211H1234.82C1234.82 27.5522 1232.68 20.8558 1227.98 16.266C1223.28 11.6732 1216.41 9.57629 1207.83 9.57629V14.1394ZM1230.12 35.9211V154.231H1234.82V35.9211H1230.12ZM1194.15 145.041V45.4461H1189.45V145.041H1194.15ZM1191.8 43.1645H1142.51V47.7276H1191.8V43.1645ZM1140.16 45.4461V145.041H1144.86V45.4461H1140.16ZM1142.51 147.322H1191.8V142.759H1142.51V147.322Z" fill="black"/>
</g>
<defs>
<clipPath id="clip0_211_235">
<rect width="1233" height="262.377" fill="white" transform="translate(0 11)"/>
</clipPath>
</defs>
</svg>
